# xmcd CD database file
#
# Track frame offsets:
#	150
#	78605
#	89264
#	100972
#	116169
#	128102
#	152033
#	165317
#	174362
#	182847
#	194407
#	212603
#	236388
#	246973
#	255007
#	282091
#	304263
#
# Disc length: 4243 seconds
#
# Revision: 1
# Processed by: cddbd v1.5.2PL0 Copyright (c) Steve Scherf et al.
# Submitted via: CDex 1.70beta2
#
DISCID=dc109111
DTITLE=Kurt Tepperwein - Erzählte Weisheiten 2
DYEAR=1900
DGENRE=New Age
TTITLE0=Das Märchen vom Paradies
TTITLE1=Worauf hörst du
TTITLE2=Sei der Du bist
TTITLE3=Gott wird mich retten
TTITLE4=Loslassen als Weg
TTITLE5=Der Adler
TTITLE6=Entscheide dich
TTITLE7=Niemals aufgeben
TTITLE8=Konzentriere dich auf das Wesentliche
TTITLE9=Einem jedem geschieht nach seinem Glauben
TTITLE10=Das Leben als Schach-Spiel
TTITLE11=Wünschen
TTITLE12=Lachen ist gute Medizin
TTITLE13=Weisheit im Witz
TTITLE14=Zeitplanung
TTITLE15=Die Münze mit den Glücksfäden
TTITLE16=Trau' Dich
EXTD=
EXTT0=
EXTT1=
EXTT2=
EXTT3=
EXTT4=
EXTT5=
EXTT6=
EXTT7=
EXTT8=
EXTT9=
EXTT10=
EXTT11=
EXTT12=
EXTT13=
EXTT14=
EXTT15=
EXTT16=
PLAYORDER=
